<svg xmlns="http://www.w3.org/2000/svg" version="1.1" viewBox="-5.0 -10.0 110.0 135.0">
 <path d="m50 5.5547c-11.789 0-23.094 4.6836-31.426 13.02-8.3359 8.332-13.02 19.637-13.02 31.426s4.6836 23.094 13.02 31.426c8.332 8.3359 19.637 13.02 31.426 13.02s23.094-4.6836 31.426-13.02c8.3359-8.332 13.02-19.637 13.02-31.426s-4.6836-23.094-13.02-31.426c-8.332-8.3359-19.637-13.02-31.426-13.02zm0 84.359v0.003907c-10.586 0-20.738-4.207-28.227-11.691-7.4844-7.4883-11.691-17.641-11.691-28.227s4.207-20.738 11.691-28.227c7.4883-7.4844 17.641-11.691 28.227-11.691s20.738 4.207 28.227 11.691c7.4844 7.4883 11.691 17.641 11.691 28.227-0.007813 10.586-4.2148 20.734-11.699 28.219s-17.633 11.691-28.219 11.699z"/>
 <path d="m65.168 34.832c-0.89453-0.85547-2.3047-0.85547-3.1953 0l-11.973 11.973-11.973-11.973c-0.88281-0.87891-2.3125-0.87891-3.1953 0-0.87891 0.88281-0.87891 2.3125 0 3.1953l11.973 11.973-11.973 11.973c-0.87891 0.88281-0.87891 2.3125 0 3.1953 0.88281 0.87891 2.3125 0.87891 3.1953 0l11.973-11.973 11.973 11.973c0.88281 0.87891 2.3125 0.87891 3.1953 0 0.87891-0.88281 0.87891-2.3125 0-3.1953l-11.973-11.973 11.973-11.973c0.85547-0.89062 0.85547-2.3008 0-3.1953z"/>
<text x="0.0" y="117.5" font-size="5.0" font-weight="bold" font-family="Arbeit Regular, Helvetica, Arial-Unicode, Arial, Sans-serif" fill="#000000">Created by Wahyu Adam</text><text x="0.0" y="122.5" font-size="5.0" font-weight="bold" font-family="Arbeit Regular, Helvetica, Arial-Unicode, Arial, Sans-serif" fill="#000000">from Noun Project</text></svg>